#!OML:ASF E:\acrobat2\Project_11_07_03\Capture day 1\Session 1\Acrobat.ASF
:FULLY-SPECIFIED
:DEGREES
161
root 6.88272 25.281 11.4685 79.2275 2.64205 -3.87975
lowerback 35.7534 1.39292 3.00774
upperback 10.2679 2.6365 1.11752
thorax -6.39927 1.14686 -1.33162
lowerneck -2.81271 -2.66498 -0.25752
upperneck -20.2899 -4.01381 -0.528827
head -5.67297 -2.00558 0.0464032
rclavicle -1.07344e-014 2.98177e-015
rhumerus -13.4675 -22.2869 -76.0891
rradius 22.5038
rwrist -0.473764
rhand -16.0485 -55.2897
rfingers 7.12502
rthumb 10.1534 -85.0247
lclavicle -1.07344e-014 2.98177e-015
lhumerus -196.104 21.7052 -107.348
lradius 5.74326
lwrist -165.449
lhand -23.6259 -32.5453
lfingers 7.12502
lthumb 2.83867 -2.58443
rfemur -65.5137 -10.1829 24.1566
rtibia 60.1017
rfoot -0.775135 -7.21017
rtoes -38.1342
lfemur -70.8178 6.51249 -11.7529
ltibia 58.5564
lfoot -3.99936 4.20736
ltoes 25.0789
162
root 6.90036 25.5509 11.8966 80.9112 2.55819 -3.58598
lowerback 40.3514 1.84585 2.25291
upperback 9.40559 3.06085 1.32671
thorax -8.9314 1.25672 -0.983266
lowerneck -1.82068 -2.87876 -0.13775
upperneck -21.8294 -4.36065 -0.416339
head -6.33217 -2.19045 0.113175
rclavicle -2.3059e-014 -9.93923e-016
rhumerus -4.83584 -18.2695 -77.3213
rradius 26.9246
rwrist -2.62537
rhand -14.0043 -58.78
rfingers 7.12502
rthumb 12.125 -88.4086
lclavicle -2.3059e-014 -9.93923e-016
lhumerus -204.351 9.53997 -106.125
lradius 11.9403
lwrist -195.576
lhand -45.5739 -46.4029
lfingers 7.12502
lthumb -18.3358 -17.247
rfemur -62.844 -11.1883 23.1272
rtibia 69.0042
rfoot -2.4581 -7.72386
rtoes -33.4362
lfemur -70.1421 6.84469 -13.3591
ltibia 68.058
lfoot -6.4187 2.96386
ltoes 21.7919
163
root 6.87328 25.743 12.2302 85.7304 3.30525 -3.74672
lowerback 40.6879 2.67235 1.45501
upperback 8.22705 3.84331 1.8863
thorax -10.4413 1.56594 -0.335198
lowerneck -1.24018 -3.08005 -0.0698829
upperneck -22.997 -4.67545 -0.270322
head -6.8092 -2.36351 0.191722
rclavicle 3.06128e-014 -1.17283e-014
rhumerus 3.30564 -13.7934 -76.1079
rradius 30.5803
rwrist -0.101357
rhand -9.3928 -62.2448
rfingers 7.12502
rthumb 16.5683 91.5575
lclavicle 3.06128e-014 -1.17283e-014
lhumerus -213.761 9.22297 -109.306
lradius 11.5363
lwrist -196.932
lhand -48.4951 -46.7622
lfingers 7.12502
lthumb -21.1441 -17.8951
rfemur -63.5407 -10.9875 23.4235
rtibia 76.1067
rfoot -3.14847 -7.33702
rtoes -26.8587
lfemur -73.0748 8.5589 -14.1099
ltibia 77.6603
lfoot -9.19161 3.3702
ltoes 5.74488
164
root 6.80301 25.8578 12.4556 93.6546 4.05288 -3.97572
lowerback 36.3149 3.75304 -0.1375
upperback 6.87585 4.67769 2.51631
thorax -10.6479 1.99968 0.908833
lowerneck -0.538351 -3.25127 0.0442423
upperneck -24.1914 -4.95796 -0.179539
head -7.32598 -2.51941 0.250656
rclavicle 8.74653e-015 -2.18663e-015
rhumerus 11.8747 -12.6644 -74.0411
rradius 34.7039
rwrist 8.30259
rhand 4.21694 -62.0698
rfingers 7.12502
rthumb 29.6228 270.275
lclavicle 8.74653e-015 -2.18663e-015
lhumerus -222.662 9.46444 -113.934
lradius 10.3208
lwrist -195.879
lhand -49.1027 -47.2867
lfingers 7.12502
lthumb -21.7277 -18.486
rfemur -68.0795 -9.54425 23.7973
rtibia 82.4344
rfoot -1.85475 -5.07981
rtoes -33.5216
lfemur -79.555 10.95 -15.1443
ltibia 87.738
lfoot -8.96998 1.78036
ltoes -18.8167
165
root 6.7895 25.8887 12.7757 98.951 3.87699 -3.70868
lowerback 35.2627 4.1691 -1.50886
upperback 5.79407 4.79855 2.7223
thorax -11.7256 2.11323 1.78558
lowerneck -0.0472772 -3.31291 0.10168
upperneck -25.2973 -5.12393 -0.276133
head -7.78832 -2.59485 0.247576
rclavicle 1.11319e-014 -1.17283e-014
rhumerus 19.6001 -5.84422 -68.9267
rradius 39.6029
rwrist -17.6333
rhand -25.0812 -63.2508
rfingers 7.12502
rthumb 1.43317 93.2257
lclavicle 1.11319e-014 -1.17283e-014
lhumerus -232.798 14.7921 -127.935
lradius 8.53507
lwrist -182.795
lhand -47.6166 -43.6389
lfingers 7.12502
lthumb -20.3 -14.6798
rfemur -67.4104 -9.63169 23.002
rtibia 89.3657
rfoot 0.73661 -0.0633427
rtoes -1.08215
lfemur -79.7349 11.0376 -16.3389
ltibia 94.444
lfoot -8.25434 -3.83822
ltoes -0.692564
166
root 6.61726 25.8384 13.3662 97.1883 4.4338 -5.55888
lowerback 43.8347 7.24705 -5.07957
upperback 4.87505 6.89124 3.8528
thorax -16.2362 3.05525 3.52364
lowerneck 0.0525531 -3.54713 0.865141
upperneck -26.0601 -5.54646 -0.598156
head -8.10065 -2.85539 0.0572193
rclavicle 1.53064e-014 6.95746e-015
rhumerus 28.8176 -8.54211 -66.0329
rradius 42.9962
rwrist -14.5724
rhand -15.6937 -66.0835
rfingers 7.12502
rthumb 10.4956 95.8015
lclavicle 1.53064e-014 6.95746e-015
lhumerus -242.567 16.3423 -143.972
lradius 5.89809
lwrist -167.597
lhand -47.1265 -42.9069
lfingers 7.12502
lthumb -19.8289 -13.8984
rfemur -54.1555 -5.63107 22.1685
rtibia 90.426
rfoot -2.85184 1.08426
rtoes -4.38629
lfemur -66.1961 14.9204 -14.1323
ltibia 95.1042
lfoot -7.13727 -7.22041
ltoes -4.52443
167
root 6.70296 25.635 13.5938 104.702 4.91795 -4.24249
lowerback 38.8423 5.76571 -3.37529
upperback 3.90937 6.02435 2.99632
thorax -15.3816 2.69522 2.32264
lowerneck -0.0236111 -3.7944 1.58388
upperneck -26.8802 -5.75225 0.0567027
head -8.37471 -3.10712 0.18328
rclavicle -2.14687e-014 -1.86858e-014
rhumerus 37.079 -10.1911 -62.8429
rradius 43.678
rwrist -16.4331
rhand -27.2477 -75.803
rfingers 7.12502
rthumb -0.659338 105.782
lclavicle -2.14687e-014 -1.86858e-014
lhumerus -251.556 14.9041 -160.961
lradius 4.7689
lwrist -151.799
lhand -44.5778 -40.5794
lfingers 7.12502
lthumb -17.3774 -11.3362
rfemur -53.4937 -6.88809 21.5257
rtibia 93.5984
rfoot -3.81356 2.17975
rtoes -9.33872
lfemur -65.8983 13.3571 -15.2776
ltibia 98.8039
lfoot -6.68353 -11.7647
ltoes -5.98805
168
root 6.75806 25.3706 13.8058 109.905 -1.66175 -6.20105
lowerback 35.367 7.65725 -10.2191
upperback 3.37816 5.74296 1.56816
thorax -14.9941 2.98319 4.57616
lowerneck -0.000480856 -4.31694 3.10456
upperneck -27.8014 -6.71144 -0.77801
head -8.80316 -3.67946 -0.257989
rclavicle 1.59028e-014 2.78299e-015
rhumerus 44.4214 -12.7481 -56.1985
rradius 44.2548
rwrist -20.8831
rhand -30.9292 90.9981
rfingers 7.12502
rthumb -4.21473 120.936
lclavicle 1.59028e-014 2.78299e-015
lhumerus -258.686 11.048 -175.902
lradius 4.32678
lwrist -136.788
lhand -42.6638 -38.0268
lfingers 7.12502
lthumb -15.5346 -8.63078
rfemur -50.1838 -8.75141 12.285
rtibia 94.8143
rfoot -3.4369 2.6873
rtoes -7.64655
lfemur -60.4235 11.4563 -24.0056
ltibia 98.9887
lfoot -5.47856 -13.693
ltoes 2.77093
169
root 6.79208 24.9411 14.0628 116.621 -1.9068 -6.20029
lowerback 30.4244 7.23681 -10.7048
upperback 2.37102 5.63857 1.12897
thorax -14.2433 3.04543 4.69256
lowerneck -1.03418 -4.52372 4.00415
upperneck -27.5408 -7.14412 -1.27881
head -8.59351 -3.96408 -0.576229
rclavicle -5.20816e-014 2.82274e-014
rhumerus 52.5732 -15.6573 -51.9192
rradius 41.2219
rwrist -20.5502
rhand -33.9181 96.7206
rfingers 7.12502
rthumb -7.10049 126.581
lclavicle -5.20816e-014 2.82274e-014
lhumerus -261.554 6.29158 -190.903
lradius 3.97842
lwrist -120.707
lhand -38.6337 -35.1124
lfingers 7.12502
lthumb -11.6505 -5.45634
rfemur -46.1082 -9.38832 10.8883
rtibia 92.7926
rfoot -3.54459 3.24297
rtoes 2.30926
lfemur -56.1724 11.0962 -25.2468
ltibia 97.8736
lfoot -2.88195 -15.482
ltoes 15.4225
170
root 6.76712 24.4549 14.2608 122.042 -2.10631 -7.08416
lowerback 26.6088 7.0724 -11.7608
upperback 1.41653 5.53305 0.472613
thorax -13.6189 3.10842 4.8064
lowerneck -1.71529 -4.36488 3.19043
upperneck -27.7493 -6.78659 -0.501893
head -8.47438 -3.78843 -0.224283
rclavicle -4.49253e-014 1.59028e-015
rhumerus 60.628 -18.7775 -50.3681
rradius 36.9621
rwrist -17.3839
rhand -32.5643 270.754
rfingers 7.12502
rthumb -5.7936 119.147
lclavicle -4.49253e-014 1.59028e-015
lhumerus -260.981 2.23665 -206.11
lradius 3.98063
lwrist -109.245
lhand -39.8174 -30.06
lfingers 7.12502
lthumb -12.7917 -0.471932
rfemur -40.8569 -8.64754 9.49071
rtibia 89.0956
rfoot -3.86391 2.66169
rtoes 7.32383
lfemur -50.1182 12.1118 -26.2192
ltibia 95.4175
lfoot -0.792026 -16.8542
ltoes 27.7133
